PathFileType	4	(X/Y/Z)	Patient4_TMGait_0pt4_01_right_37.trc.trc
DataRate	CameraRate	NumFrames	NumMarkers	Units	OrigDataRate	OrigDataStartFrame	OrigNumFrames
74.468085106383	74.468085106383	6	33	mm	74.468085106383	71	       141
Frame#	Time	Sacral			L.Shoulder			Chest			R.Shoulder			Neck			R.ASIS			L.ASIS			R.Thigh.Superior			R.Thigh.Lateral			R.Thigh.Inferior			R.Patella			L.Thigh.Superior			L.Thigh.Lateral			L.Thigh.Inferior			L.Patella			L.Shank.Superior			L.Shank.Lateral			L.Shank.Inferior			R.Shank.Superior			R.Shank.Lateral			R.Shank.Inferior			R.Heel			R.Midfoot.Superior			R.Midfoot.Lateral			R.Toe			L.Heel			L.Midfoot.Lateral			L.Midfoot.Superior			L.Toe			L.Elbow			L.Wrist			R.Elbow			R.Wrist			
		X1	Y1	Z1	X2	Y2	Z2	X3	Y3	Z3	X4	Y4	Z4	X5	Y5	Z5	X6	Y6	Z6	X7	Y7	Z7	X8	Y8	Z8	X9	Y9	Z9	X10	Y10	Z10	X11	Y11	Z11	X12	Y12	Z12	X13	Y13	Z13	X14	Y14	Z14	X15	Y15	Z15	X16	Y16	Z16	X17	Y17	Z17	X18	Y18	Z18	X19	Y19	Z19	X20	Y20	Z20	X21	Y21	Z21	X22	Y22	Z22	X23	Y23	Z23	X24	Y24	Z24	X25	Y25	Z25	X26	Y26	Z26	X27	Y27	Z27	X28	Y28	Z28	X29	Y29	Z29	X30	Y30	Z30	X31	Y31	Z31	X32	Y32	Z32	X33	Y33	Z33	

71	49.180000000000	838.997644499980	1007.552139608434	516.519686236054	1001.841495807920	1429.069548114459	310.695389633264	1128.518459698085	1357.611433405012	452.398423768922	1077.815086607454	1434.713725068444	637.288755703411	1014.264176984615	1490.980442256413	465.582929984906	1076.548295209994	935.749502173919	606.417160707689	1032.383381168474	955.904087284105	334.839033133989	1075.523292624542	724.759518657305	582.209785482681	974.874125827730	630.912233531066	649.400589658618	1033.530959026240	565.175156055572	568.225888093113	1015.789154722662	482.178011408365	574.834883919258	1104.969155720636	763.530715223414	363.669856204125	1042.559678577312	636.765106364498	295.702143559528	1145.844120414729	575.519077354031	353.287746164213	1163.201210631108	506.426286519537	353.709975786480	1141.843775535049	433.557754309588	343.801294039811	1062.623668791504	310.693484599990	294.760268397655	1137.972427610700	203.591810326672	350.957115872518	979.075418045232	397.894166559291	583.332245677043	897.729330666646	302.684947059265	647.137086994487	928.877482643274	203.458296068653	583.598587637047	783.799651574498	44.070438535350	549.094846383493	952.230020216240	95.017705278019	592.314496509464	862.931675667315	36.684875552912	628.410386405792	1071.630501825035	41.469384816964	628.281805138222	1033.279993808911	39.746676930109	390.069700504648	1106.849454607047	36.734445705095	309.539271859724	1188.188487971059	101.353731766652	333.334859517117	1316.979280995478	53.585401509742	305.451787478687	883.339579031624	1090.651461235821	223.126776155341	885.992742021381	831.714429025055	193.309280618897	1206.813121316023	1120.318440220414	754.946096027161	1441.219773210904	1167.990856728485	676.668095893260	
72	49.193428571429	840.479302482694	1006.950396975295	513.564036027710	1002.114283237582	1428.388702587550	307.257235988250	1128.786254393024	1357.686757123461	449.360298371478	1077.293295553957	1434.743937029225	634.090463987958	1013.941923089734	1490.760412834112	461.883574672857	1078.102525323663	935.567376984497	604.037094952020	1034.300964729024	955.252713219727	332.535518561989	1076.566414136587	724.227815114545	580.410133430942	974.993283178058	630.864298839322	647.460333740608	1033.383350693770	564.561064456179	566.677549675292	1015.049566706508	481.319008480111	573.223083735714	1106.483665598752	761.902493407906	362.163796073485	1043.077898244519	635.674108395897	294.715427826242	1145.726087814181	574.006009195607	353.179250900297	1162.058036047525	504.251071680084	353.955941602164	1140.215547881464	431.300185917826	343.904729484297	1059.864058466217	309.258313830024	294.715287197141	1133.064255539144	201.350204389710	351.854848083869	977.356533151886	397.435926766398	582.144858496082	895.013266284073	303.374815645957	646.575337469454	924.952202629378	203.563968481407	583.310017247161	778.470250221512	44.909634072757	549.523993891298	947.007468504380	94.978642697994	592.202591515917	857.668739785508	36.916712149545	628.593031593293	1066.328891023369	41.127728200144	628.341967408279	1025.701633050394	38.906737893389	390.609225317983	1099.365731197700	35.945091863456	310.093168407871	1181.397891641764	99.286769716831	334.858888128368	1309.930466818551	50.181305171898	306.707083295072	885.527543331315	1089.371247998603	219.524377688724	890.186234564069	830.377329066585	189.629909277725	1204.289534311681	1118.648267921719	751.190349114601	1439.272077472073	1164.810943713081	673.373465178261	
73	49.206857142857	841.898118078565	1006.629310411476	510.531829141369	1002.485204878955	1427.956610442293	303.773779798693	1129.129337638280	1357.910511604126	446.242336795998	1076.960801951594	1434.993921676330	630.803088831595	1013.750324014131	1490.755072106522	458.144032307448	1079.540378527571	935.575386571015	601.420016747556	1036.038410278852	954.955083964720	329.976605723921	1077.533249712021	723.919522278273	578.352002289791	975.235920741857	630.986699624630	645.384230154799	1033.415998723392	564.156460219710	564.959215800407	1014.646785224473	480.540656032381	571.586784980618	1107.981639601052	760.938453139274	360.631215600865	1044.024903656954	635.173429807145	293.410505061578	1145.875100364775	573.063169426375	352.859512283244	1161.288247517105	502.697963320191	353.910793435451	1139.047071170157	429.649011312480	343.709380139341	1057.854609309783	308.360017182819	294.189392847639	1128.891358112850	199.768539831278	352.363246603731	975.874115745231	397.114120082915	580.940392517441	892.437434826900	304.294035963469	645.945593712605	921.182559508579	203.863532912871	583.048024260740	773.185586837994	46.086441771152	550.004081186758	941.932633005309	95.042041036368	592.186948584507	852.463266919404	37.296221793879	628.799738191345	1061.067044188295	40.742508417078	628.410205451135	1019.160056373990	38.432632712268	390.811868318392	1092.931044485898	35.585667854559	310.338655950574	1175.430202982513	97.974570984811	335.908045478218	1303.803405146359	47.878660893826	307.567153219950	888.257942499437	1088.215938493660	215.696343349503	895.335621814297	829.184847633797	185.735443272944	1201.118522875344	1116.901107072280	747.524282812354	1437.048710797005	1160.060959105231	670.448604681811	
74	49.220285714286	843.229465999802	1006.582226204612	507.403691942502	1002.930596351324	1427.797041823177	300.273083435077	1129.531039855178	1358.279015419357	443.056147855093	1076.817593895341	1435.461659017572	627.439694267600	1013.685628122694	1490.961169346764	454.413237537006	1080.819003499644	935.800885921727	598.577416409304	1037.590768214455	954.989463474362	327.139912359857	1078.400487266525	723.866278998065	576.047655113447	975.645291603065	631.274784553282	643.201053115011	1033.716845139154	563.974322106485	563.100658037341	1014.700604580438	479.822224981651	570.002614244711	1109.484612559832	760.657970007328	358.999147450771	1045.325760608565	635.181893866223	291.828580290465	1146.279444661687	572.607939448533	352.200307161341	1160.849630232189	501.677091301595	353.519057325237	1138.257553444139	428.511788961625	343.228347707507	1056.413810781559	307.926480813180	293.260228022996	1125.285636798674	198.747538121348	352.530547402235	974.714508186288	396.917887697342	579.760675581506	890.052075063302	305.448962607616	645.248195288420	917.618942918335	204.360645318836	582.824090091794	767.962312077657	47.646007016973	550.508820776330	937.036399497301	95.213061126752	592.273634222843	847.319811868319	37.853889505289	629.020313741722	1055.847268679852	40.322388038935	628.484838618309	1013.441196399115	38.267914733800	390.770176388902	1087.312987516689	35.543712183031	310.354017578728	1170.101114641375	97.276764115785	336.530573778238	1298.391157061002	46.464969263813	308.063880399936	891.450483820217	1087.239608676863	211.663439005061	901.428018572267	828.205453606343	181.654063901786	1197.345425502685	1115.151262331634	743.962812233618	1434.522749513954	1153.721540879762	667.882813175682	
75	49.233714285714	844.456718852137	1006.772880854261	504.146065174884	1003.426886957508	1427.907466203812	296.768557968678	1129.966107871107	1358.783225310325	439.816106934231	1076.819623336461	1436.126410134912	624.014493421518	1013.726384971740	1491.358623682839	450.722145926241	1081.909489982318	936.253014039438	595.535765703392	1038.988894409938	955.301066911632	324.031929730891	1079.188177007693	724.078317983390	573.534311749189	976.284698533291	631.704065926550	640.943565424149	1034.395751962853	564.005892921484	561.141613102309	1015.342641386073	479.127936599595	568.546356148177	1111.004314977633	760.971428146815	357.176740405490	1046.806181260038	635.551134720817	290.024394227139	1146.850383641080	572.485406200617	351.098306942246	1160.632579752497	501.051426877893	352.759847352008	1137.704252764931	427.756496782448	342.493159482677	1055.304991620061	307.840375681429	292.030167621828	1122.043276612186	198.150070671852	352.425501307655	973.974814780985	396.822422460553	578.644033573878	887.920300579967	306.835161233993	644.484486035639	914.317678454111	205.049318605807	582.646005147384	762.822205809495	49.624770995948	551.008338559881	932.346238262025	95.487196370754	592.457285479440	842.242303536798	38.619420784036	629.240309492301	1050.668943302338	39.880855919102	628.562309546143	1008.292935438366	38.333136320151	390.573483422511	1082.248214382141	35.702081240691	310.217327887609	1165.198844440872	97.025208398128	336.808566320833	1293.459335512823	45.695785551957	308.263700020763	895.005398309734	1086.472262471393	207.444310216995	908.435569032121	827.488541172659	177.413762020419	1193.028110041067	1113.469293569642	740.518254206233	1431.644439760174	1145.797417748049	665.654965228124	
76	49.247142857143	845.568534661272	1007.145594057528	500.720711631459	1003.956743627253	1428.261130499919	293.257604635821	1130.403744222518	1359.411990966041	436.539291570962	1076.884661567069	1436.954322289707	620.541672575805	1013.838148403200	1491.914826260960	447.080451246840	1082.796035296868	936.920899271332	592.335293976378	1040.288390879578	955.813847611002	320.692612999723	1079.961829014483	724.544483695577	570.869514317029	977.235142689442	632.232575372961	638.644162275214	1035.578513156444	564.223278032702	559.127204124249	1016.707283490849	478.412661268537	567.280996261022	1112.532763906685	761.698439152757	355.064293021486	1048.223730547084	636.097140083328	288.055176938950	1147.443076269387	572.512236164656	349.495321316394	1160.486369374796	500.674280724653	351.647137554421	1137.213645906058	427.243211348679	341.542956098931	1054.281709660979	307.967865920314	290.603398025218	1118.963046826528	197.831401843069	352.120918750197	973.760088074597	396.793249255850	577.620659307593	886.119541869424	308.441727046890	643.657684037846	911.340521793516	205.918358200659	582.517635034562	757.793600661342	52.056387675184	551.475400178181	927.886704679721	95.853928819936	592.723871127411	837.236459281762	39.625101181470	629.444093694335	1045.528445018079	39.434468744934	628.637225658169	1003.472584199412	38.542904861277	390.298575948279	1077.489039989271	35.956307326685	309.997242957556	1160.522981855402	97.053757907325	336.838180823940	1288.787636173834	45.337115374138	308.248695080546	898.815005582695	1085.919241611559	203.054949680358	916.311911175182	827.064211763599	173.041431000266	1188.233154619324	1111.917646120289	737.199066054369	1428.340425095333	1136.325757270994	663.734779292222	
